<svg width="500" height="500" viewBox="0 0 500 500" fill="none" xmlns="http://www.w3.org/2000/svg">
<path d="M110.84 2.87891C115.474 1.99876 120.471 2.63214 125.875 5.00586C130.866 7.19833 135.165 10.619 139.221 14.7012C153.367 28.9382 162.417 46.2712 166.869 66.3682C170.081 80.8628 170.979 95.4743 168.945 110.201C168.679 112.127 168.567 114.087 168.438 115.869V115.871C168.373 116.759 168.421 117.813 168.421 118.334V120.002L169.962 120.643C170.845 121.01 171.833 121.199 172.846 120.97C173.877 120.737 174.592 120.149 175.06 119.609C175.493 119.109 175.795 118.553 175.968 118.235C176.195 117.817 176.255 117.708 176.306 117.642V117.641C190.94 98.3729 207.146 80.804 225.366 65.3545C238.167 54.5011 251.546 45.0277 266.741 38.8223C271.984 36.6813 277.269 35.0782 282.696 34.4102H282.697C292.782 33.168 301.203 36.3485 307.826 44.6025C313.088 51.1598 314.527 58.4586 312.136 66.6113L311.893 67.4033C310.2 72.669 307.698 77.5154 304.527 82.0127C297.036 92.6373 287.815 101.48 277.765 109.571C261.994 122.267 244.852 132.545 226.677 141.006H226.676C225.271 141.661 223.884 142.351 222.517 143.064L222.514 143.066C221.62 143.534 221.32 144.333 221.243 144.548C221.147 144.817 221.102 145.078 221.086 145.165C221.036 145.436 221.015 145.592 220.947 145.88L220.288 148.662L223.134 148.944C226.24 149.252 229.265 149.192 232.184 148.981C252.593 147.511 270.368 155.472 287.44 167.12C292.146 170.331 295.955 174.791 299.261 179.89V179.889C306.576 191.174 311.441 203.473 313.104 216.914L313.255 218.219C314.328 228.178 312.511 237.777 307.813 246.491C302.234 256.843 293.158 261.483 281.996 262.705C275.484 263.417 269.194 261.868 263 258.894C255.94 255.503 249.578 250.875 243.438 245.638C232.436 236.254 222.994 225.256 213.042 214.324L211.044 212.14C203.557 203.99 195.955 195.964 188.34 187.977H188.339C188.061 187.686 187.825 187.395 187.438 186.948C187.091 186.549 186.651 186.059 186.128 185.612C185.005 184.653 183.431 183.85 181.33 184.143L179.809 184.354L179.311 185.809C178.763 187.406 178.805 188.894 179.009 190.171C179.189 191.303 179.584 192.637 179.762 193.392L179.763 193.393C182.031 202.987 183.513 212.759 184.583 222.63V222.631C185.782 233.683 184.578 244.569 181.267 255.141C175.893 272.293 168.161 288.183 157.753 302.471H157.752C149.144 314.289 138.388 323.013 125.017 327.863C122.679 328.711 120.302 329.296 117.863 329.677L116.814 329.827C113.434 330.271 110.543 329.73 108.179 328.388C105.813 327.044 103.791 324.792 102.334 321.497C99.0976 314.176 98.502 306.327 99.3066 298.028C101.175 278.731 106.537 260.472 114.273 242.871C116.576 237.632 119.1 232.683 121.58 227.36L121.581 227.361C122.132 226.179 122.459 224.931 122.67 223.796L122.671 223.797C122.842 222.882 122.463 222.192 122.38 222.042C122.238 221.784 122.078 221.589 121.976 221.473C121.76 221.227 121.518 221.017 121.307 220.856C121.097 220.697 120.817 220.509 120.495 220.358C120.338 220.285 120.091 220.183 119.787 220.12C119.534 220.068 118.909 219.971 118.204 220.266C116.811 220.847 115.254 221.537 113.8 222.483C96.0259 234.033 76.6332 240.759 55.9717 244.148C48.4702 245.38 40.9623 245.632 33.3711 245.26C26.8639 244.941 20.5691 243.673 14.6719 240.962C10.134 238.876 7.08307 236.243 5.17285 232.995C3.25392 229.732 2.34384 225.606 2.52148 220.291C2.6385 216.79 3.29276 213.37 4.35059 210.08L4.56738 209.424C12.1019 187.234 23.6837 168.135 41.2744 153.564C50.5766 145.86 61.0169 140.711 72.5293 138.634C83.3378 136.684 93.9382 137.488 104.076 142.119C104.742 142.424 105.411 142.768 106.137 143.147C106.845 143.517 107.617 143.924 108.406 144.297C109.643 144.882 111.028 145.437 112.569 145.739L112.744 145.787C112.898 145.929 113.086 146.073 113.312 146.193C113.704 146.402 114.49 146.677 115.405 146.339C116.285 146.014 116.693 145.338 116.851 144.995C117.13 144.388 117.111 143.802 117.107 143.649V143.639L117.106 143.628C117.085 142.964 116.812 142.468 116.582 142.171C116.555 142.135 116.525 142.103 116.497 142.071C116.303 140.467 115.655 139.153 114.949 138.073C114.5 137.385 113.993 136.742 113.583 136.214C113.146 135.652 112.802 135.197 112.522 134.746H112.521C102.185 118.05 94.0781 100.33 88.9922 81.1611C85.5682 68.2576 82.9834 55.4475 83.6553 42.2354C84.2994 29.5662 88.6026 18.7545 97.4082 10.3223C101.712 6.20089 106.198 3.7606 110.84 2.87891Z" fill="#B0F1C2" stroke="black" stroke-width="5"/>
<path d="M380.413 208.114C382.999 206.885 385.4 206.471 387.673 206.736C389.81 206.985 391.958 207.85 394.142 209.404L394.579 209.724C397.413 211.856 399.583 214.672 401.587 217.895C407.11 226.781 410.34 236.717 412.627 247.175V247.176C413.454 250.978 414.245 254.736 414.816 258.746L415.411 262.915L418.267 259.819C423.367 254.29 427.738 249.049 432.548 244.1L433.516 243.114C438.88 237.712 444.512 232.851 450.877 229.012C455.431 226.265 460.25 225.671 465.405 226.584C469.492 227.308 472.289 229.317 473.805 232.005C475.285 234.631 475.688 238.161 474.526 242.292L474.409 242.694C473.326 246.269 471.638 249.567 469.641 252.791L469.237 253.434C464.99 260.138 460.188 266.361 454.783 272.032C450.162 276.88 445.528 281.476 440.834 286.34C440.587 286.596 440.315 286.841 439.969 287.155C439.642 287.451 439.253 287.805 438.881 288.205C438.108 289.035 437.356 290.114 437.025 291.635L436.836 292.506L437.357 293.23C438.345 294.599 439.63 295.24 440.839 295.572C441.878 295.857 443.207 295.972 443.874 296.078H443.875C451.383 297.267 458.638 299.404 465.629 302.503C478.054 308.012 487.248 317.494 494.364 329.615C496.212 332.763 497.36 336.244 497.813 339.937L497.895 340.678C498.304 344.922 497.525 348.406 495.822 351.123C494.228 353.666 491.731 355.687 488.303 357.025L487.604 357.284C482.756 358.984 477.736 358.916 472.47 358.436L471.413 358.334C466.218 357.815 461.13 356.735 456.26 354.814L455.289 354.419C445.102 350.139 435.243 345.601 426.362 339.092C426.194 338.969 426.104 338.887 425.826 338.669C425.602 338.494 425.292 338.263 424.924 338.064C424.103 337.621 423.033 337.369 421.79 337.785L421.355 337.929L421.028 338.249C419.713 339.531 419.503 341.038 419.568 342.247C419.599 342.808 419.691 343.361 419.757 343.774C419.812 344.117 419.852 344.38 419.872 344.607L419.886 344.825C420.438 361.485 416.501 376.948 408.863 391.5C406.365 396.26 403.433 400.354 399.33 403.244C397.905 404.248 396.546 405.124 395.162 405.687C393.611 406.318 392.176 406.39 390.933 406.038C389.691 405.685 388.495 404.869 387.488 403.477C386.283 401.81 385.338 399.815 384.429 397.69C380.582 388.7 378.432 379.212 377.865 369.374C377.218 358.135 377.492 347.059 380.228 336.253L380.227 336.252C380.548 334.986 380.724 333.692 380.849 332.463L380.959 331.258C381.059 330.093 380.723 328.876 379.694 328.083C378.741 327.347 377.59 327.29 376.695 327.47C375.069 327.798 373.494 328.376 372.131 328.851L372.13 328.852C362.087 332.361 351.695 334.43 341.138 336.036H341.137C338.058 336.505 334.874 336.637 331.694 336.55L330.332 336.5C326.367 336.317 323.196 334.718 321.083 332.224C318.964 329.724 317.789 326.179 318.106 321.903C318.722 313.618 321.555 306.81 327.997 301.616C335.459 295.599 344.074 293.348 353.386 291.45C356.758 290.762 360.159 290.751 363.675 290.984C365.434 291.101 367.197 291.277 369.001 291.455C370.793 291.631 372.625 291.81 374.466 291.923C374.821 291.945 375.166 292.013 375.732 292.111C376.236 292.197 376.913 292.305 377.637 292.272H377.638C378.802 292.218 379.685 291.547 380.183 290.817C380.633 290.156 380.951 289.166 380.65 288.14L380.582 287.935C379.812 285.871 378.843 283.909 377.887 282.052C374.318 275.124 370.906 268.214 368.116 260.989L367.566 259.54C362.625 246.255 363.994 233.271 369.143 220.271C371.362 214.665 375.153 210.613 380.413 208.114Z" fill="#FECC37" stroke="black" stroke-width="4"/>
<path d="M203.068 332.045C205.411 330.813 207.621 330.616 210.131 331.513H210.132C214.406 333.04 217.698 335.771 219.963 339.759C221.831 343.047 223.482 346.508 224.706 350.052V350.053C227.139 357.09 228.752 364.377 229.533 371.854C229.888 375.258 230.352 378.684 230.728 381.781L230.83 382.623L231.506 383.134C232.203 383.662 232.966 384.028 233.799 384.128C234.651 384.231 235.388 384.034 235.979 383.747C236.533 383.477 236.985 383.113 237.289 382.858C237.661 382.547 237.804 382.412 237.988 382.282C243.915 378.113 250.148 374.841 256.941 372.906C263.766 370.961 270.523 370.956 277.21 373.094L277.857 373.308C279.819 373.976 281.752 374.903 283.489 376.041H283.49C286.987 378.329 288.938 380.868 289.705 383.641C290.478 386.434 290.138 389.784 288.42 393.852C286.277 398.924 282.848 402.918 278.68 406.465C270.888 413.096 262.179 417.968 252.712 421.401L251.794 421.729C249.926 422.385 248.05 423.09 246.275 423.736L244.838 424.259L244.968 425.785C245.1 427.344 245.669 428.535 246.292 429.495C246.593 429.957 246.915 430.38 247.187 430.734C247.472 431.107 247.699 431.403 247.897 431.703C253.113 439.603 257.41 448.064 261.17 456.888C263.506 462.37 264.986 468.133 266.005 474.127L266.203 475.33C267.079 480.83 265.956 485.996 263.817 491.159C262.829 493.546 261.508 495.219 259.925 496.307C258.346 497.392 256.364 497.991 253.887 498L252.844 497.992C247.645 497.891 242.71 496.881 238.088 494.557C226.597 488.78 217.429 480.546 211.632 468.479C207.902 460.716 204.487 453.105 202.938 444.755C202.724 443.604 202.199 442.038 200.645 441.411C199.358 440.891 198.067 441.319 197.097 441.822L196.701 442.039C190.277 445.762 184.156 449.593 177.753 453.071C172.054 456.165 166.184 458.952 160.262 461.711C152.158 465.488 144.017 464.566 135.698 461.09C133.448 460.151 131.438 458.978 129.829 457.314L129.513 456.974C128 455.29 126.999 453.588 126.532 451.823C126.07 450.077 126.096 448.148 126.816 445.936C128.808 439.819 131.562 434.206 135.391 429.296C139.948 423.451 144.833 417.979 150.376 413.375C159.754 405.585 170.038 400.47 181.95 400.067H181.952C185.914 399.931 189.867 400.475 195.296 402.086L198.744 403.11L197.794 399.641C196.545 395.083 195.666 391.83 194.765 388.591V388.59C191.69 377.549 190.318 366.393 191.457 354.977V354.976C191.948 350.056 192.817 345.414 194.771 341.147C196.623 337.1 199.325 334.014 203.068 332.045Z" fill="#FA5082" stroke="black" stroke-width="4"/>
</svg>
